<?xml version="1.0" encoding="UTF-8"?>
<svg id="Layer_1" xmlns="http://www.w3.org/2000/svg" xmlns:xlink="http://www.w3.org/1999/xlink" version="1.1" viewBox="0 0 4711.98 400">
  <!-- Generator: Adobe Illustrator 30.1.0, SVG Export Plug-In . SVG Version: 2.1.1 Build 136)  -->
  <defs>
    <style>
      .st0 {
        fill: url(#linear-gradient2);
      }

      .st1 {
        fill: url(#linear-gradient1);
      }

      .st2 {
        fill: url(#linear-gradient);
      }

      .st3 {
        opacity: .8;
      }

      .st3, .st4, .st5 {
        fill: #fff;
        isolation: isolate;
      }

      .st4 {
        opacity: .3;
      }

      .st5 {
        opacity: .5;
      }
    </style>
    <linearGradient id="linear-gradient" x1="2355.99" y1="0" x2="2355.99" y2="400" gradientUnits="userSpaceOnUse">
      <stop offset="0" stop-color="#87ceeb"/>
      <stop offset=".25" stop-color="#fff"/>
    </linearGradient>
    <linearGradient id="linear-gradient1" x1="2356" y1="40" x2="2356" y2="400" gradientUnits="userSpaceOnUse">
      <stop offset="0" stop-color="#fff"/>
      <stop offset=".37" stop-color="#6a5acd"/>
      <stop offset=".69" stop-color="#6a5acd"/>
    </linearGradient>
    <linearGradient id="linear-gradient2" x1="2356" y1="100" x2="2356" y2="400" gradientUnits="userSpaceOnUse">
      <stop offset="0" stop-color="#483d8b"/>
      <stop offset="1" stop-color="#000"/>
    </linearGradient>
  </defs>
  <g id="background">
    <rect class="st2" y="0" width="4711.98" height="400"/>
    <path class="st1" d="M0,200l471.2-100,471.2,50,471.2-70,471.2,40,471.2-60,471.2,40,471.2-50,471.2,30,471.2-40,471.2,20v340H0v-200Z"/>
  </g>
  <g id="middle-ground">
    <path class="st0" d="M0,250l706.8-100,706.8,50,706.8-80,706.8,60,706.8-80,706.8,60,471.2-40v280H0v-150Z"/>
  </g>
  <path class="st3" d="M310,70c0-16.57-26.86-30-60-30-8.21,0-16.02.83-23.15,2.32-8.4-1.5-17.43-2.32-26.85-2.32-44.18,0-80,17.91-80,40s35.82,40,80,40c31.21,0,58.22-8.94,71.41-21.97,22.56-4.31,38.59-15.23,38.59-28.03Z"/>
  <path class="st5" d="M750,90c0-19.33-31.34-35-70-35-9.49,0-18.54.95-26.79,2.66-15.41-4.85-33.65-7.66-53.21-7.66-55.23,0-100,22.39-100,50s44.77,50,100,50c37.15,0,69.57-10.13,86.81-25.17,35.46-1.71,63.19-16.65,63.19-34.83Z"/>
  <path class="st3" d="M1130,50c0-16.57-26.86-30-60-30-7.65,0-14.96.72-21.69,2.03-13.96-4.45-30.53-7.03-48.31-7.03-49.71,0-90,20.15-90,45s40.29,45,90,45c35.75,0,66.64-10.42,81.16-25.53,27.8-2.62,48.84-14.81,48.84-29.47Z"/>
  <path class="st3" d="M1520,80c0-16.57-26.86-30-60-30-10.01,0-19.44,1.23-27.73,3.4-9.87-2.18-20.78-3.4-32.27-3.4-44.18,0-80,17.91-80,40s35.82,40,80,40c29.93,0,56.01-8.23,69.73-20.4,28.51-2.33,50.27-14.69,50.27-29.6Z"/>
  <path class="st4" d="M2523.3,80c0-16.57-26.86-30-60-30-8.21,0-16.02.83-23.15,2.32-8.4-1.5-17.43-2.32-26.85-2.32-44.18,0-80,17.91-80,40s35.82,40,80,40c31.21,0,58.22-8.94,71.41-21.97,22.56-4.31,38.59-15.23,38.59-28.03Z"/>
  <path class="st5" d="M2963.3,100c0-19.33-31.34-35-70-35-9.49,0-18.54.95-26.79,2.66-15.41-4.85-33.65-7.66-53.21-7.66-55.23,0-100,22.39-100,50s44.77,50,100,50c37.15,0,69.57-10.13,86.81-25.17,35.46-1.71,63.19-16.65,63.19-34.83Z"/>
  <path class="st3" d="M3343.3,60c0-16.57-26.86-30-60-30-7.65,0-14.96.72-21.69,2.03-13.96-4.45-30.53-7.03-48.31-7.03-49.71,0-90,20.15-90,45s40.29,45,90,45c35.75,0,66.64-10.42,81.16-25.53,27.8-2.62,48.84-14.81,48.84-29.47Z"/>
  <path class="st4" d="M3733.3,90c0-16.57-26.86-30-60-30-10.01,0-19.44,1.23-27.73,3.4-9.87-2.18-20.78-3.4-32.27-3.4-44.18,0-80,17.91-80,40s35.82,40,80,40c29.93,0,56.01-8.23,69.73-20.4,28.51-2.33,50.27-14.69,50.27-29.6Z"/>
</svg>