<svg id="visual" viewBox="0 0 900 600" width="900" height="600" xmlns="http://www.w3.org/2000/svg" xmlns:xlink="http://www.w3.org/1999/xlink" version="1.1"><path d="M0 139L82 139L82 163L164 163L164 163L245 163L245 247L327 247L327 193L409 193L409 151L491 151L491 163L573 163L573 133L655 133L655 157L736 157L736 133L818 133L818 145L900 145L900 121L900 0L900 0L818 0L818 0L736 0L736 0L655 0L655 0L573 0L573 0L491 0L491 0L409 0L409 0L327 0L327 0L245 0L245 0L164 0L164 0L82 0L82 0L0 0Z" fill="#fa7268"></path><path d="M0 385L82 385L82 349L164 349L164 409L245 409L245 385L327 385L327 295L409 295L409 361L491 361L491 283L573 283L573 331L655 331L655 307L736 307L736 355L818 355L818 301L900 301L900 355L900 119L900 143L818 143L818 131L736 131L736 155L655 155L655 131L573 131L573 161L491 161L491 149L409 149L409 191L327 191L327 245L245 245L245 161L164 161L164 161L82 161L82 137L0 137Z" fill="#ea5e66"></path><path d="M0 463L82 463L82 427L164 427L164 451L245 451L245 481L327 481L327 343L409 343L409 409L491 409L491 403L573 403L573 397L655 397L655 415L736 415L736 409L818 409L818 415L900 415L900 415L900 353L900 299L818 299L818 353L736 353L736 305L655 305L655 329L573 329L573 281L491 281L491 359L409 359L409 293L327 293L327 383L245 383L245 407L164 407L164 347L82 347L82 383L0 383Z" fill="#d84a64"></path><path d="M0 559L82 559L82 529L164 529L164 529L245 529L245 553L327 553L327 505L409 505L409 523L491 523L491 535L573 535L573 517L655 517L655 535L736 535L736 535L818 535L818 553L900 553L900 535L900 413L900 413L818 413L818 407L736 407L736 413L655 413L655 395L573 395L573 401L491 401L491 407L409 407L409 341L327 341L327 479L245 479L245 449L164 449L164 425L82 425L82 461L0 461Z" fill="#c53762"></path><path d="M0 601L82 601L82 601L164 601L164 601L245 601L245 601L327 601L327 601L409 601L409 601L491 601L491 601L573 601L573 601L655 601L655 601L736 601L736 601L818 601L818 601L900 601L900 601L900 533L900 551L818 551L818 533L736 533L736 533L655 533L655 515L573 515L573 533L491 533L491 521L409 521L409 503L327 503L327 551L245 551L245 527L164 527L164 527L82 527L82 557L0 557Z" fill="#b0235f"></path></svg>