<?xml version="1.0" encoding="UTF-8"?>
<svg id="Layer_1" xmlns="http://www.w3.org/2000/svg" version="1.1" viewBox="0 0 2724.14 1095.19">
  <!-- Generator: Adobe Illustrator 30.1.0, SVG Export Plug-In . SVG Version: 2.1.1 Build 136)  -->
  <defs>
    <style>
      .st0 {
        stroke: #231f20;
      }

      .st0, .st1, .st2, .st3 {
        fill: none;
      }

      .st0, .st1, .st4, .st3 {
        stroke-linecap: round;
        stroke-linejoin: round;
      }

      .st0, .st3 {
        stroke-width: .7px;
      }

      .st5, .st6, .st4 {
        fill: #e7ff00;
      }

      .st7 {
        fill: #396;
      }

      .st6 {
        stroke: #000;
      }

      .st6, .st2 {
        stroke-miterlimit: 10;
      }

      .st1, .st4 {
        stroke: #808285;
        stroke-width: .8px;
      }

      .st2 {
        stroke: #333;
      }

      .st8 {
        fill: green;
      }

      .st9 {
        fill: red;
      }

      .st10 {
        fill: gold;
      }

      .st3 {
        stroke: #d1d3d4;
      }

      .st11 {
        display: none;
      }
    </style>
  </defs>
  <g id="scenes">
    <rect class="st7" x="575.93" y="82.28" width="297.77" height="506.68"/>
    <rect class="st7" x="1650.13" y="320.61" width="719.16" height="605.83"/>
    <rect class="st7" x="62.15" y="119.86" width="297.77" height="126.24"/>
  </g>
  <g id="platforms">
    <rect x="647.65" y="659.17" width="800" height="20"/>
    <rect x="747.65" y="619.17" width="80" height="20"/>
    <rect x="897.65" y="579.17" width="80" height="20"/>
    <rect x="1047.65" y="539.17" width="80" height="20"/>
    <rect x="1197.65" y="499.17" width="80" height="20"/>
    <rect x="1348.65" y="479.17" width="1333.36" height="20"/>
    <rect x="-3.05" y="732.35" width="768.62" height="67.2"/>
  </g>
  <g id="collectables">
    <g>
      <path class="st0" d="M815.17,601.81c3.16-2.05-1.46-.9-.84-1.3,0,0,3.7,1.61,4.18,1.3,3.9-2.53-9.93-2.72-4.19-6.45,2.8-1.82,3.34,8.02,5.75,6.45,6.94-4.51-11.99-4.8-5.75-8.85,0,0,8.08,8.9,8.15,8.85,8.8-5.71-8.16-12.56-8.16-12.56,2.76-1.79,5.54,17.52,13.17,12.56,8.24-5.35-9.68-14.91-9.68-14.91,3.19-2.07,5.25,18.9,13.24,13.71,5.11-3.32-18.28-7.63-8.91-13.71,2.91-1.89,4.68,7.42,8.89,4.68,4.86-3.16-3.05-4.69-3.05-4.69,1.65-1.07,1.23,4.26,3.04,3.08,4.06-2.64-6.06-.45-2-3.09,0,0,.68,3.65,2,2.79,0,0-3.18-1.9-1.81-2.79"/>
      <path class="st0" d="M965.17,561.81c3.16-2.05-1.46-.9-.84-1.3,0,0,3.7,1.61,4.18,1.3,3.9-2.53-9.93-2.72-4.19-6.45,2.8-1.82,3.34,8.02,5.75,6.45,6.94-4.51-11.99-4.8-5.75-8.85,0,0,8.08,8.9,8.15,8.85,8.8-5.71-8.16-12.56-8.16-12.56,2.76-1.79,5.54,17.52,13.17,12.56,8.24-5.35-9.68-14.91-9.68-14.91,3.19-2.07,5.25,18.9,13.24,13.71,5.11-3.32-18.28-7.63-8.91-13.71,2.91-1.89,4.68,7.42,8.89,4.68,4.86-3.16-3.05-4.69-3.05-4.69,1.65-1.07,1.23,4.26,3.04,3.08,4.06-2.64-6.06-.45-2-3.09,0,0,.68,3.65,2,2.79,0,0-3.18-1.9-1.81-2.79"/>
      <path class="st0" d="M1115.17,521.81c3.16-2.05-1.46-.9-.84-1.3,0,0,3.7,1.61,4.18,1.3,3.9-2.53-9.93-2.72-4.19-6.45,2.8-1.82,3.34,8.02,5.75,6.45,6.94-4.51-11.99-4.8-5.75-8.85,0,0,8.08,8.9,8.15,8.85,8.8-5.71-8.16-12.56-8.16-12.56,2.76-1.79,5.54,17.52,13.17,12.56,8.24-5.35-9.68-14.91-9.68-14.91,3.19-2.07,5.25,18.9,13.24,13.71,5.11-3.32-18.28-7.63-8.91-13.71,2.91-1.89,4.68,7.42,8.89,4.68,4.86-3.16-3.05-4.69-3.05-4.69,1.65-1.07,1.23,4.26,3.04,3.08,4.06-2.64-6.06-.45-2-3.09,0,0,.68,3.65,2,2.79,0,0-3.18-1.9-1.81-2.79"/>
      <path class="st0" d="M1265.17,481.81c3.16-2.05-1.46-.9-.84-1.3,0,0,3.7,1.61,4.18,1.3,3.9-2.53-9.93-2.72-4.19-6.45,2.8-1.82,3.34,8.02,5.75,6.45,6.94-4.51-11.99-4.8-5.75-8.85,0,0,8.08,8.9,8.15,8.85,8.8-5.71-8.16-12.56-8.16-12.56,2.76-1.79,5.54,17.52,13.17,12.56,8.24-5.35-9.68-14.91-9.68-14.91,3.19-2.07,5.25,18.9,13.24,13.71,5.11-3.32-18.28-7.63-8.91-13.71,2.91-1.89,4.68,7.42,8.89,4.68,4.86-3.16-3.05-4.69-3.05-4.69,1.65-1.07,1.23,4.26,3.04,3.08,4.06-2.64-6.06-.45-2-3.09,0,0,.68,3.65,2,2.79,0,0-3.18-1.9-1.81-2.79"/>
    </g>
    <g>
      <path class="st1" d="M815.17,586.81c.28.28.15-1.05.6-.6,1.02,1.02-3.52,3.34-1.57,5.29,0,0,1.15-9.77,5.46-5.46,1.08,1.08-6.92,3.93-4.13,6.72,5.6,5.6,2.25-12.26,7.26-7.26,5.57,5.57-8.66,13.16-8.66,13.16,3.79,3.79,11.09-14.98,13.04-13.04,2.42,2.42-21.17,9.3-13.5,16.97,9.51,9.51,13.31-18.08,15.69-15.69,5.47,5.47-18.92,8.22-12.09,15.04,8.91,8.91,5.91-23.3,14.6-14.6,4.17,4.17-13.09,13.44-11.25,15.28,6.85,6.85,3.82-17.6,10.71-10.71,4.52,4.52-9.06,8.53-6.73,10.86,4.83,4.83,2.32-11.98,7.15-7.15,0,0-6.79,4.26-3.92,7.14,3.22,3.22,2.12-4.01,3.06-3.06.81.81-.26,2.02.01,2.29,1.86,1.86-.69-2.42.87-.87"/>
      <path class="st1" d="M965.17,546.81c.28.28.15-1.05.6-.6,1.02,1.02-3.52,3.34-1.57,5.29,0,0,1.15-9.77,5.46-5.46,1.08,1.08-6.92,3.93-4.13,6.72,5.6,5.6,2.25-12.26,7.26-7.26,5.57,5.57-8.66,13.16-8.66,13.16,3.79,3.79,11.09-14.98,13.04-13.04,2.42,2.42-21.17,9.3-13.5,16.97,9.51,9.51,13.31-18.08,15.69-15.69,5.47,5.47-18.92,8.22-12.09,15.04,8.91,8.91,5.91-23.3,14.6-14.6,4.17,4.17-13.09,13.44-11.25,15.28,6.85,6.85,3.82-17.6,10.71-10.71,4.52,4.52-9.06,8.53-6.73,10.86,4.83,4.83,2.32-11.98,7.15-7.15,0,0-6.79,4.26-3.92,7.14,3.22,3.22,2.12-4.01,3.06-3.06.81.81-.26,2.02.01,2.29,1.86,1.86-.69-2.42.87-.87"/>
      <path class="st1" d="M1115.17,506.81c.28.28.15-1.05.6-.6,1.02,1.02-3.52,3.34-1.57,5.29,0,0,1.15-9.77,5.46-5.46,1.08,1.08-6.92,3.93-4.13,6.72,5.6,5.6,2.25-12.26,7.26-7.26,5.57,5.57-8.66,13.16-8.66,13.16,3.79,3.79,11.09-14.98,13.04-13.04,2.42,2.42-21.17,9.3-13.5,16.97,9.51,9.51,13.31-18.08,15.69-15.69,5.47,5.47-18.92,8.22-12.09,15.04,8.91,8.91,5.91-23.3,14.6-14.6,4.17,4.17-13.09,13.44-11.25,15.28,6.85,6.85,3.82-17.6,10.71-10.71,4.52,4.52-9.06,8.53-6.73,10.86,4.83,4.83,2.32-11.98,7.15-7.15,0,0-6.79,4.26-3.92,7.14,3.22,3.22,2.12-4.01,3.06-3.06.81.81-.26,2.02.01,2.29,1.86,1.86-.69-2.42.87-.87"/>
      <path class="st1" d="M1265.17,466.81c.28.28.15-1.05.6-.6,1.02,1.02-3.52,3.34-1.57,5.29,0,0,1.15-9.77,5.46-5.46,1.08,1.08-6.92,3.93-4.13,6.72,5.6,5.6,2.25-12.26,7.26-7.26,5.57,5.57-8.66,13.16-8.66,13.16,3.79,3.79,11.09-14.98,13.04-13.04,2.42,2.42-21.17,9.3-13.5,16.97,9.51,9.51,13.31-18.08,15.69-15.69,5.47,5.47-18.92,8.22-12.09,15.04,8.91,8.91,5.91-23.3,14.6-14.6,4.17,4.17-13.09,13.44-11.25,15.28,6.85,6.85,3.82-17.6,10.71-10.71,4.52,4.52-9.06,8.53-6.73,10.86,4.83,4.83,2.32-11.98,7.15-7.15,0,0-6.79,4.26-3.92,7.14,3.22,3.22,2.12-4.01,3.06-3.06.81.81-.26,2.02.01,2.29,1.86,1.86-.69-2.42.87-.87"/>
    </g>
    <g>
      <path class="st3" d="M816.52,587.92c1.61,2.58-.98-5.69,1.85-1.16,1.45,2.32-3.34,2.93-1.85,5.31,5.05,8.08,5.52-10.13,8.52-5.32,4.35,6.95-9.63,12.23-8.52,14.01,3.36,5.38,6.08-17.67,12.32-7.7,2.45,3.92-11.36,7.61-10.55,8.91,5.68,9.09,4.87-15.69,10.55-6.6"/>
      <path class="st3" d="M966.52,547.92c1.61,2.58-.98-5.69,1.85-1.16,1.45,2.32-3.34,2.93-1.85,5.31,5.05,8.08,5.52-10.13,8.52-5.32,4.35,6.95-9.63,12.23-8.52,14.01,3.36,5.38,6.08-17.67,12.32-7.7,2.45,3.92-11.36,7.61-10.55,8.91,5.68,9.09,4.87-15.69,10.55-6.6"/>
      <path class="st3" d="M1116.52,507.92c1.61,2.58-.98-5.69,1.85-1.16,1.45,2.32-3.34,2.93-1.85,5.31,5.05,8.08,5.52-10.13,8.52-5.32,4.35,6.95-9.63,12.23-8.52,14.01,3.36,5.38,6.08-17.67,12.32-7.7,2.45,3.92-11.36,7.61-10.55,8.91,5.68,9.09,4.87-15.69,10.56-6.6"/>
      <path class="st3" d="M1266.52,467.92c1.61,2.58-.98-5.69,1.85-1.16,1.45,2.32-3.34,2.93-1.85,5.31,5.05,8.08,5.52-10.13,8.52-5.32,4.35,6.95-9.63,12.23-8.52,14.01,3.36,5.38,6.08-17.67,12.32-7.7,2.45,3.92-11.36,7.61-10.55,8.91,5.68,9.09,4.87-15.69,10.55-6.6"/>
    </g>
    <g>
      <rect class="st10" x="812.67" y="584.36" width="20" height="20"/>
      <rect class="st10" x="962.67" y="544.36" width="20" height="20"/>
      <rect class="st10" x="1112.67" y="504.36" width="20" height="20"/>
      <rect class="st10" x="1262.67" y="464.36" width="20" height="20"/>
    </g>
  </g>
  <g id="checkpoints">
    <rect class="st8" x="2615.99" y="424.36" width="30" height="50"/>
  </g>
  <g id="startpoint">
    <rect class="st8" x="96.81" y="589.36" width="30" height="50"/>
  </g>
  <g id="enemies">
    <rect class="st9" x="1459.08" y="454.51" width="20" height="20"/>
    <rect class="st9" x="1329.48" y="634.36" width="20" height="20"/>
    <rect class="st9" x="1607.31" y="454.36" width="20" height="20"/>
  </g>
  <g id="npcs">
    <g id="npc">
      <g id="show">
        <rect class="st4" x="2176.31" y="418" width="28.35" height="56.69"/>
      </g>
      <g id="hide" class="st11">
        <rect class="st5" x="2173.69" y="388.41" width="35.01" height="25.6"/>
        <path class="st6" d="M2188.49,403.93h1.83v-4.85h-1.83v-1.48h5.42v1.48h-1.83v4.85h1.83v1.48h-5.42v-1.48Z"/>
      </g>
    </g>
  </g>
  <g id="border">
    <rect class="st2" y="-6.62" width="2724.14" height="1101.81"/>
  </g>
</svg>