<?xml version="1.0" encoding="UTF-8"?>
<svg id="Layer_1" xmlns="http://www.w3.org/2000/svg" version="1.1" viewBox="0 0 223.1 302.3">
  <!-- Generator: Adobe Illustrator 30.1.0, SVG Export Plug-In . SVG Version: 2.1.1 Build 136)  -->
  <defs>
    <style>
      .st0 {
        fill: #3cf;
      }

      .st0, .st1, .st2 {
        stroke-width: .75px;
      }

      .st0, .st1, .st2, .st3 {
        stroke: #000;
        stroke-miterlimit: 10;
      }

      .st2 {
        fill: #fff;
      }

      .st3 {
        fill: none;
        stroke-linecap: round;
        stroke-width: 8px;
      }
    </style>
  </defs>
  <g id="Player">
    <g>
      <rect class="st0" x="30.52" y="30.09" width="165.19" height="235.64" rx="41.57" ry="41.57"/>
      <path class="st1" d="M154.14,34.09c20.72,0,37.57,16.85,37.57,37.57v152.5c0,20.72-16.85,37.57-37.57,37.57h-82.05c-20.72,0-37.57-16.85-37.57-37.57V71.66c0-20.72,16.85-37.57,37.57-37.57h82.05M154.14,26.09h-82.05c-25.17,0-45.57,20.4-45.57,45.57v152.5c0,25.17,20.4,45.57,45.57,45.57h82.05c25.17,0,45.57-20.4,45.57-45.57V71.66c0-25.17-20.4-45.57-45.57-45.57h0Z"/>
    </g>
    <g>
      <path class="st1" d="M160.73,88.88c-11.75,0-21.32-9.56-21.32-21.32s9.56-21.32,21.32-21.32,21.32,9.56,21.32,21.32-9.56,21.32-21.32,21.32h0Z"/>
      <path class="st1" d="M160.73,46.74c11.48,0,20.82,9.34,20.82,20.82s-9.34,20.82-20.82,20.82-20.82-9.34-20.82-20.82,9.34-20.82,20.82-20.82M160.73,45.74c-12.05,0-21.82,9.77-21.82,21.82s9.77,21.82,21.82,21.82,21.82-9.77,21.82-21.82-9.77-21.82-21.82-21.82h0Z"/>
    </g>
    <g>
      <path class="st1" d="M106.35,88.88c-11.75,0-21.32-9.56-21.32-21.32s9.56-21.32,21.32-21.32,21.32,9.56,21.32,21.32-9.56,21.32-21.32,21.32Z"/>
      <path class="st1" d="M106.35,46.74c11.48,0,20.82,9.34,20.82,20.82s-9.34,20.82-20.82,20.82-20.82-9.34-20.82-20.82,9.34-20.82,20.82-20.82M106.35,45.74c-12.05,0-21.82,9.77-21.82,21.82s9.77,21.82,21.82,21.82,21.82-9.77,21.82-21.82-9.77-21.82-21.82-21.82h0Z"/>
    </g>
    <path class="st3" d="M117.53,108.89s1.71,10.16,21.82,9.32c20.11-.84,20.96-16.09,20.96-16.09"/>
    <g>
      <path class="st2" d="M168.64,81.63c-5.74,0-10.41-4.67-10.41-10.41s4.67-10.41,10.41-10.41,10.41,4.67,10.41,10.41-4.67,10.41-10.41,10.41Z"/>
      <path class="st1" d="M168.64,61.32c5.46,0,9.91,4.45,9.91,9.91s-4.45,9.91-9.91,9.91-9.91-4.45-9.91-9.91,4.45-9.91,9.91-9.91M168.64,60.32c-6.02,0-10.91,4.88-10.91,10.91s4.88,10.91,10.91,10.91,10.91-4.88,10.91-10.91-4.88-10.91-10.91-10.91h0Z"/>
    </g>
    <g>
      <path class="st2" d="M113.12,81.63c-5.74,0-10.41-4.67-10.41-10.41s4.67-10.41,10.41-10.41,10.41,4.67,10.41,10.41-4.67,10.41-10.41,10.41Z"/>
      <path class="st1" d="M113.12,61.32c5.46,0,9.91,4.45,9.91,9.91s-4.45,9.91-9.91,9.91-9.91-4.45-9.91-9.91,4.45-9.91,9.91-9.91M113.12,60.32c-6.02,0-10.91,4.88-10.91,10.91s4.88,10.91,10.91,10.91,10.91-4.88,10.91-10.91-4.88-10.91-10.91-10.91h0Z"/>
    </g>
  </g>
</svg>